<mxfile host="65bd71144e">
    <diagram name="自身の環境の構成図" id="PIoUobShaJpe-S5NZDr3">
        <mxGraphModel dx="650" dy="1078" grid="1" gridSize="10" guides="1" tooltips="1" connect="1" arrows="1" fold="1" page="1" pageScale="1" pageWidth="827" pageHeight="1169" background="#FFFFFF" math="0" shadow="0">
            <root>
                <mxCell id="jYcv72yagDhfz9gc1qvm-0"/>
                <mxCell id="jYcv72yagDhfz9gc1qvm-1" parent="jYcv72yagDhfz9gc1qvm-0"/>
                <mxCell id="jYcv72yagDhfz9gc1qvm-2" value="ap-northeast-1(Tokyo)" style="points=[[0,0],[0.25,0],[0.5,0],[0.75,0],[1,0],[1,0.25],[1,0.5],[1,0.75],[1,1],[0.75,1],[0.5,1],[0.25,1],[0,1],[0,0.75],[0,0.5],[0,0.25]];outlineConnect=0;gradientColor=none;html=1;whiteSpace=wrap;fontSize=12;fontStyle=0;container=1;pointerEvents=0;collapsible=0;recursiveResize=0;shape=mxgraph.aws4.group;grIcon=mxgraph.aws4.group_region;strokeColor=#00A4A6;fillColor=none;verticalAlign=top;align=left;spacingLeft=30;fontColor=#147EBA;dashed=1;" parent="jYcv72yagDhfz9gc1qvm-1" vertex="1">
                    <mxGeometry x="40" y="200" width="760" height="580" as="geometry"/>
                </mxCell>
                <mxCell id="jYcv72yagDhfz9gc1qvm-3" value="Availability Zone-c" style="fillColor=none;strokeColor=#147EBA;dashed=1;verticalAlign=top;fontStyle=0;fontColor=#147EBA;whiteSpace=wrap;html=1;" parent="jYcv72yagDhfz9gc1qvm-1" vertex="1">
                    <mxGeometry x="400" y="320" width="280" height="420" as="geometry"/>
                </mxCell>
                <mxCell id="jYcv72yagDhfz9gc1qvm-4" value="Availability Zone-a" style="fillColor=none;strokeColor=#147EBA;dashed=1;verticalAlign=top;fontStyle=0;fontColor=#147EBA;whiteSpace=wrap;html=1;" parent="jYcv72yagDhfz9gc1qvm-1" vertex="1">
                    <mxGeometry x="80" y="320" width="280" height="420" as="geometry"/>
                </mxCell>
                <mxCell id="jYcv72yagDhfz9gc1qvm-5" value="AWS Cloud(123412341234)&lt;div&gt;&lt;br&gt;&lt;/div&gt;" style="points=[[0,0],[0.25,0],[0.5,0],[0.75,0],[1,0],[1,0.25],[1,0.5],[1,0.75],[1,1],[0.75,1],[0.5,1],[0.25,1],[0,1],[0,0.75],[0,0.5],[0,0.25]];outlineConnect=0;gradientColor=none;html=1;whiteSpace=wrap;fontSize=12;fontStyle=0;container=1;pointerEvents=0;collapsible=0;recursiveResize=0;shape=mxgraph.aws4.group;grIcon=mxgraph.aws4.group_aws_cloud;strokeColor=#232F3E;fillColor=none;verticalAlign=top;align=left;spacingLeft=30;fontColor=#232F3E;dashed=0;" parent="jYcv72yagDhfz9gc1qvm-1" vertex="1">
                    <mxGeometry x="20" y="160" width="800" height="640" as="geometry"/>
                </mxCell>
                <mxCell id="jYcv72yagDhfz9gc1qvm-6" value="" style="outlineConnect=0;fontColor=#232F3E;gradientColor=none;fillColor=#8C4FFF;strokeColor=none;dashed=0;verticalLabelPosition=bottom;verticalAlign=top;align=center;html=1;fontSize=12;fontStyle=0;aspect=fixed;pointerEvents=1;shape=mxgraph.aws4.nat_gateway;" parent="jYcv72yagDhfz9gc1qvm-5" vertex="1">
                    <mxGeometry x="161" y="241" width="78" height="78" as="geometry"/>
                </mxCell>
                <mxCell id="fmQ4scqo7gN8J1IEVNpA-0" value="WAF" style="sketch=0;points=[[0,0,0],[0.25,0,0],[0.5,0,0],[0.75,0,0],[1,0,0],[0,1,0],[0.25,1,0],[0.5,1,0],[0.75,1,0],[1,1,0],[0,0.25,0],[0,0.5,0],[0,0.75,0],[1,0.25,0],[1,0.5,0],[1,0.75,0]];outlineConnect=0;fontColor=#232F3E;fillColor=#DD344C;strokeColor=#ffffff;dashed=0;verticalLabelPosition=bottom;verticalAlign=top;align=center;html=1;fontSize=12;fontStyle=0;aspect=fixed;shape=mxgraph.aws4.resourceIcon;resIcon=mxgraph.aws4.waf;" parent="jYcv72yagDhfz9gc1qvm-5" vertex="1">
                    <mxGeometry x="690" y="250" width="78" height="78" as="geometry"/>
                </mxCell>
                <mxCell id="jYcv72yagDhfz9gc1qvm-12" value="&lt;font style=&quot;color: rgb(140, 79, 255);&quot;&gt;raisetech-vpc(10.0.0.0/21)&lt;/font&gt;" style="points=[[0,0],[0.25,0],[0.5,0],[0.75,0],[1,0],[1,0.25],[1,0.5],[1,0.75],[1,1],[0.75,1],[0.5,1],[0.25,1],[0,1],[0,0.75],[0,0.5],[0,0.25]];outlineConnect=0;gradientColor=none;html=1;whiteSpace=wrap;fontSize=12;fontStyle=0;container=1;pointerEvents=0;collapsible=0;recursiveResize=0;shape=mxgraph.aws4.group;grIcon=mxgraph.aws4.group_vpc2;strokeColor=#8C4FFF;fillColor=none;verticalAlign=top;align=left;spacingLeft=30;fontColor=#AAB7B8;dashed=0;" parent="jYcv72yagDhfz9gc1qvm-1" vertex="1">
                    <mxGeometry x="60" y="260" width="640" height="500" as="geometry"/>
                </mxCell>
                <mxCell id="jYcv72yagDhfz9gc1qvm-13" value="raisetech-igw" style="outlineConnect=0;fontColor=#232F3E;gradientColor=none;fillColor=#8C4FFF;strokeColor=none;dashed=0;verticalLabelPosition=bottom;verticalAlign=top;align=center;html=1;fontSize=12;fontStyle=0;aspect=fixed;pointerEvents=1;shape=mxgraph.aws4.internet_gateway;" parent="jYcv72yagDhfz9gc1qvm-12" vertex="1">
                    <mxGeometry x="281" y="-40" width="78" height="78" as="geometry"/>
                </mxCell>
                <mxCell id="jYcv72yagDhfz9gc1qvm-16" value="raisetech-alb" style="outlineConnect=0;fontColor=#232F3E;gradientColor=none;fillColor=#8C4FFF;strokeColor=none;dashed=0;verticalLabelPosition=bottom;verticalAlign=top;align=center;html=1;fontSize=12;fontStyle=0;aspect=fixed;pointerEvents=1;shape=mxgraph.aws4.application_load_balancer;" parent="jYcv72yagDhfz9gc1qvm-12" vertex="1">
                    <mxGeometry x="280" y="150" width="78" height="78" as="geometry"/>
                </mxCell>
                <mxCell id="jYcv72yagDhfz9gc1qvm-15" style="edgeStyle=none;html=1;" parent="jYcv72yagDhfz9gc1qvm-12" source="jYcv72yagDhfz9gc1qvm-16" target="jYcv72yagDhfz9gc1qvm-13" edge="1">
                    <mxGeometry relative="1" as="geometry"/>
                </mxCell>
                <mxCell id="jYcv72yagDhfz9gc1qvm-14" value="&lt;font style=&quot;color: rgb(77, 153, 0);&quot;&gt;raisetech-subnet-public-a&lt;/font&gt;&lt;div&gt;&lt;span style=&quot;background-color: transparent;&quot;&gt;&lt;font style=&quot;color: rgb(77, 153, 0);&quot;&gt;(10.0.0.0/24)&lt;/font&gt;&lt;/span&gt;&lt;/div&gt;" style="points=[[0,0],[0.25,0],[0.5,0],[0.75,0],[1,0],[1,0.25],[1,0.5],[1,0.75],[1,1],[0.75,1],[0.5,1],[0.25,1],[0,1],[0,0.75],[0,0.5],[0,0.25]];outlineConnect=0;gradientColor=none;html=1;whiteSpace=wrap;fontSize=12;fontStyle=0;container=1;pointerEvents=0;collapsible=0;recursiveResize=0;shape=mxgraph.aws4.group;grIcon=mxgraph.aws4.group_security_group;grStroke=0;strokeColor=#7AA116;fillColor=#F2F6E8;verticalAlign=top;align=left;spacingLeft=30;fontColor=#248814;dashed=0;" parent="jYcv72yagDhfz9gc1qvm-1" vertex="1">
                    <mxGeometry x="100" y="360" width="240" height="160" as="geometry"/>
                </mxCell>
                <mxCell id="jYcv72yagDhfz9gc1qvm-18" value="raisetech-ap" style="points=[[0,0,0],[0.25,0,0],[0.5,0,0],[0.75,0,0],[1,0,0],[0,1,0],[0.25,1,0],[0.5,1,0],[0.75,1,0],[1,1,0],[0,0.25,0],[0,0.5,0],[0,0.75,0],[1,0.25,0],[1,0.5,0],[1,0.75,0]];outlineConnect=0;fontColor=#232F3E;fillColor=#ED7100;strokeColor=#ffffff;dashed=0;verticalLabelPosition=bottom;verticalAlign=top;align=center;html=1;fontSize=12;fontStyle=0;aspect=fixed;shape=mxgraph.aws4.resourceIcon;resIcon=mxgraph.aws4.ec2;" parent="jYcv72yagDhfz9gc1qvm-14" vertex="1">
                    <mxGeometry x="81" y="50" width="78" height="78" as="geometry"/>
                </mxCell>
                <mxCell id="lkqLbz8zfirezxG7ypi9-0" value="" style="edgeStyle=none;html=1;" parent="jYcv72yagDhfz9gc1qvm-1" source="jYcv72yagDhfz9gc1qvm-16" target="jYcv72yagDhfz9gc1qvm-18" edge="1">
                    <mxGeometry relative="1" as="geometry"/>
                </mxCell>
                <mxCell id="jYcv72yagDhfz9gc1qvm-17" value="&lt;font style=&quot;color: rgb(0, 153, 153);&quot;&gt;raisetech-subnet-ap-a&lt;/font&gt;&lt;div&gt;&lt;font style=&quot;color: rgb(0, 153, 153);&quot;&gt;(10.0.2.0/24)&lt;/font&gt;&lt;/div&gt;" style="points=[[0,0],[0.25,0],[0.5,0],[0.75,0],[1,0],[1,0.25],[1,0.5],[1,0.75],[1,1],[0.75,1],[0.5,1],[0.25,1],[0,1],[0,0.75],[0,0.5],[0,0.25]];outlineConnect=0;gradientColor=none;html=1;whiteSpace=wrap;fontSize=12;fontStyle=0;container=1;pointerEvents=0;collapsible=0;recursiveResize=0;shape=mxgraph.aws4.group;grIcon=mxgraph.aws4.group_security_group;grStroke=0;strokeColor=#00A4A6;fillColor=#E6F6F7;verticalAlign=top;align=left;spacingLeft=30;fontColor=#147EBA;dashed=0;" parent="jYcv72yagDhfz9gc1qvm-1" vertex="1">
                    <mxGeometry x="100" y="560" width="240" height="160" as="geometry"/>
                </mxCell>
                <mxCell id="jYcv72yagDhfz9gc1qvm-20" value="raisetech-db" style="points=[[0,0,0],[0.25,0,0],[0.5,0,0],[0.75,0,0],[1,0,0],[0,1,0],[0.25,1,0],[0.5,1,0],[0.75,1,0],[1,1,0],[0,0.25,0],[0,0.5,0],[0,0.75,0],[1,0.25,0],[1,0.5,0],[1,0.75,0]];outlineConnect=0;fontColor=#232F3E;fillColor=#C925D1;strokeColor=#ffffff;dashed=0;verticalLabelPosition=bottom;verticalAlign=top;align=center;html=1;fontSize=12;fontStyle=0;aspect=fixed;shape=mxgraph.aws4.resourceIcon;resIcon=mxgraph.aws4.rds;" parent="jYcv72yagDhfz9gc1qvm-17" vertex="1">
                    <mxGeometry x="81" y="51" width="78" height="78" as="geometry"/>
                </mxCell>
                <mxCell id="jYcv72yagDhfz9gc1qvm-21" value="&lt;font style=&quot;color: rgb(77, 153, 0);&quot;&gt;raisetech-subnet-public-c&lt;/font&gt;&lt;div&gt;&lt;font style=&quot;color: rgb(77, 153, 0);&quot;&gt;(10.0.1.0/24)&lt;/font&gt;&lt;/div&gt;" style="points=[[0,0],[0.25,0],[0.5,0],[0.75,0],[1,0],[1,0.25],[1,0.5],[1,0.75],[1,1],[0.75,1],[0.5,1],[0.25,1],[0,1],[0,0.75],[0,0.5],[0,0.25]];outlineConnect=0;gradientColor=none;html=1;whiteSpace=wrap;fontSize=12;fontStyle=0;container=1;pointerEvents=0;collapsible=0;recursiveResize=0;shape=mxgraph.aws4.group;grIcon=mxgraph.aws4.group_security_group;grStroke=0;strokeColor=#7AA116;fillColor=#F2F6E8;verticalAlign=top;align=left;spacingLeft=30;fontColor=#248814;dashed=0;" parent="jYcv72yagDhfz9gc1qvm-1" vertex="1">
                    <mxGeometry x="420" y="360" width="240" height="160" as="geometry"/>
                </mxCell>
                <mxCell id="jYcv72yagDhfz9gc1qvm-22" value="&lt;font style=&quot;color: rgb(0, 153, 153);&quot;&gt;raisetech-subnet-ap-c&lt;/font&gt;&lt;div&gt;&lt;font style=&quot;color: rgb(0, 153, 153);&quot;&gt;(10.0.3.0/24)&lt;/font&gt;&lt;/div&gt;" style="points=[[0,0],[0.25,0],[0.5,0],[0.75,0],[1,0],[1,0.25],[1,0.5],[1,0.75],[1,1],[0.75,1],[0.5,1],[0.25,1],[0,1],[0,0.75],[0,0.5],[0,0.25]];outlineConnect=0;gradientColor=none;html=1;whiteSpace=wrap;fontSize=12;fontStyle=0;container=1;pointerEvents=0;collapsible=0;recursiveResize=0;shape=mxgraph.aws4.group;grIcon=mxgraph.aws4.group_security_group;grStroke=0;strokeColor=#00A4A6;fillColor=#E6F6F7;verticalAlign=top;align=left;spacingLeft=30;fontColor=#147EBA;dashed=0;" parent="jYcv72yagDhfz9gc1qvm-1" vertex="1">
                    <mxGeometry x="420" y="560" width="240" height="160" as="geometry"/>
                </mxCell>
                <mxCell id="jYcv72yagDhfz9gc1qvm-24" style="edgeStyle=none;html=1;" parent="jYcv72yagDhfz9gc1qvm-1" source="jYcv72yagDhfz9gc1qvm-26" target="jYcv72yagDhfz9gc1qvm-28" edge="1">
                    <mxGeometry relative="1" as="geometry"/>
                </mxCell>
                <mxCell id="LVagKoanOwoL1LrIkJnl-1" style="edgeStyle=none;html=1;" parent="jYcv72yagDhfz9gc1qvm-1" source="jYcv72yagDhfz9gc1qvm-26" target="jYcv72yagDhfz9gc1qvm-13" edge="1">
                    <mxGeometry relative="1" as="geometry"/>
                </mxCell>
                <mxCell id="jYcv72yagDhfz9gc1qvm-26" value="Internet" style="outlineConnect=0;fontColor=#232F3E;gradientColor=none;fillColor=#232F3D;strokeColor=none;dashed=0;verticalLabelPosition=bottom;verticalAlign=top;align=center;html=1;fontSize=12;fontStyle=0;aspect=fixed;pointerEvents=1;shape=mxgraph.aws4.internet_alt22;" parent="jYcv72yagDhfz9gc1qvm-1" vertex="1">
                    <mxGeometry x="341" y="50" width="78" height="78" as="geometry"/>
                </mxCell>
                <mxCell id="jYcv72yagDhfz9gc1qvm-27" style="edgeStyle=none;html=1;strokeColor=default;" parent="jYcv72yagDhfz9gc1qvm-1" source="jYcv72yagDhfz9gc1qvm-28" target="jYcv72yagDhfz9gc1qvm-26" edge="1">
                    <mxGeometry relative="1" as="geometry"/>
                </mxCell>
                <mxCell id="jYcv72yagDhfz9gc1qvm-28" value="Users" style="outlineConnect=0;fontColor=#232F3E;gradientColor=none;fillColor=#232F3D;strokeColor=none;dashed=0;verticalLabelPosition=bottom;verticalAlign=top;align=center;html=1;fontSize=12;fontStyle=0;aspect=fixed;pointerEvents=1;shape=mxgraph.aws4.users;" parent="jYcv72yagDhfz9gc1qvm-1" vertex="1">
                    <mxGeometry x="582" y="50" width="78" height="78" as="geometry"/>
                </mxCell>
                <mxCell id="LVagKoanOwoL1LrIkJnl-0" style="edgeStyle=none;html=1;" parent="jYcv72yagDhfz9gc1qvm-1" source="jYcv72yagDhfz9gc1qvm-18" target="jYcv72yagDhfz9gc1qvm-20" edge="1">
                    <mxGeometry relative="1" as="geometry"/>
                </mxCell>
                <mxCell id="fmQ4scqo7gN8J1IEVNpA-1" style="edgeStyle=none;html=1;" parent="jYcv72yagDhfz9gc1qvm-1" source="fmQ4scqo7gN8J1IEVNpA-0" target="jYcv72yagDhfz9gc1qvm-16" edge="1">
                    <mxGeometry relative="1" as="geometry"/>
                </mxCell>
            </root>
        </mxGraphModel>
    </diagram>
    <diagram id="Nh6WNaBXZJMQIJfO8OLQ" name="動画の構成図">
        <mxGraphModel dx="784" dy="303" grid="1" gridSize="10" guides="1" tooltips="1" connect="1" arrows="1" fold="1" page="1" pageScale="1" pageWidth="827" pageHeight="1169" background="#FFFFFF" math="0" shadow="0">
            <root>
                <mxCell id="0"/>
                <mxCell id="1" parent="0"/>
                <mxCell id="ogn6myn86fiLowBTFniq-4" value="ap-northeast-1(Tokyo)" style="points=[[0,0],[0.25,0],[0.5,0],[0.75,0],[1,0],[1,0.25],[1,0.5],[1,0.75],[1,1],[0.75,1],[0.5,1],[0.25,1],[0,1],[0,0.75],[0,0.5],[0,0.25]];outlineConnect=0;gradientColor=none;html=1;whiteSpace=wrap;fontSize=12;fontStyle=0;container=1;pointerEvents=0;collapsible=0;recursiveResize=0;shape=mxgraph.aws4.group;grIcon=mxgraph.aws4.group_region;strokeColor=#00A4A6;fillColor=none;verticalAlign=top;align=left;spacingLeft=30;fontColor=#147EBA;dashed=1;" parent="1" vertex="1">
                    <mxGeometry x="40" y="200" width="680" height="920" as="geometry"/>
                </mxCell>
                <mxCell id="nPZWYVcRISLS1kJSarjj-2" value="Availability Zone-c" style="fillColor=none;strokeColor=#147EBA;dashed=1;verticalAlign=top;fontStyle=0;fontColor=#147EBA;whiteSpace=wrap;html=1;" parent="1" vertex="1">
                    <mxGeometry x="400" y="320" width="280" height="640" as="geometry"/>
                </mxCell>
                <mxCell id="nPZWYVcRISLS1kJSarjj-1" value="Availability Zone-a" style="fillColor=none;strokeColor=#147EBA;dashed=1;verticalAlign=top;fontStyle=0;fontColor=#147EBA;whiteSpace=wrap;html=1;" parent="1" vertex="1">
                    <mxGeometry x="80" y="320" width="280" height="640" as="geometry"/>
                </mxCell>
                <mxCell id="5f-3jXRU_izveSJCPpXX-2" value="AWS Cloud(123412341234)&lt;div&gt;&lt;br&gt;&lt;/div&gt;" style="points=[[0,0],[0.25,0],[0.5,0],[0.75,0],[1,0],[1,0.25],[1,0.5],[1,0.75],[1,1],[0.75,1],[0.5,1],[0.25,1],[0,1],[0,0.75],[0,0.5],[0,0.25]];outlineConnect=0;gradientColor=none;html=1;whiteSpace=wrap;fontSize=12;fontStyle=0;container=1;pointerEvents=0;collapsible=0;recursiveResize=0;shape=mxgraph.aws4.group;grIcon=mxgraph.aws4.group_aws_cloud;strokeColor=#232F3E;fillColor=none;verticalAlign=top;align=left;spacingLeft=30;fontColor=#232F3E;dashed=0;" parent="1" vertex="1">
                    <mxGeometry x="20" y="160" width="720" height="980" as="geometry"/>
                </mxCell>
                <mxCell id="5f-3jXRU_izveSJCPpXX-1" value="" style="outlineConnect=0;fontColor=#232F3E;gradientColor=none;fillColor=#8C4FFF;strokeColor=none;dashed=0;verticalLabelPosition=bottom;verticalAlign=top;align=center;html=1;fontSize=12;fontStyle=0;aspect=fixed;pointerEvents=1;shape=mxgraph.aws4.nat_gateway;" parent="5f-3jXRU_izveSJCPpXX-2" vertex="1">
                    <mxGeometry x="161" y="241" width="78" height="78" as="geometry"/>
                </mxCell>
                <mxCell id="92hZvD37wfUQ4eG0nZyX-1" value="raisetech-bucket-&lt;div&gt;123412341234&lt;/div&gt;" style="points=[[0,0,0],[0.25,0,0],[0.5,0,0],[0.75,0,0],[1,0,0],[0,1,0],[0.25,1,0],[0.5,1,0],[0.75,1,0],[1,1,0],[0,0.25,0],[0,0.5,0],[0,0.75,0],[1,0.25,0],[1,0.5,0],[1,0.75,0]];outlineConnect=0;fontColor=#232F3E;fillColor=#7AA116;strokeColor=#ffffff;dashed=0;verticalLabelPosition=bottom;verticalAlign=top;align=center;html=1;fontSize=12;fontStyle=0;aspect=fixed;shape=mxgraph.aws4.resourceIcon;resIcon=mxgraph.aws4.s3;" parent="5f-3jXRU_izveSJCPpXX-2" vertex="1">
                    <mxGeometry x="570" y="842" width="78" height="78" as="geometry"/>
                </mxCell>
                <mxCell id="P6kV5CcfUCWV6D3hr4gn-15" value="ACM" style="points=[[0,0,0],[0.25,0,0],[0.5,0,0],[0.75,0,0],[1,0,0],[0,1,0],[0.25,1,0],[0.5,1,0],[0.75,1,0],[1,1,0],[0,0.25,0],[0,0.5,0],[0,0.75,0],[1,0.25,0],[1,0.5,0],[1,0.75,0]];outlineConnect=0;fontColor=#232F3E;fillColor=#DD344C;strokeColor=#ffffff;dashed=0;verticalLabelPosition=bottom;verticalAlign=top;align=center;html=1;fontSize=12;fontStyle=0;aspect=fixed;shape=mxgraph.aws4.resourceIcon;resIcon=mxgraph.aws4.certificate_manager_3;" parent="5f-3jXRU_izveSJCPpXX-2" vertex="1">
                    <mxGeometry x="83" y="842" width="78" height="78" as="geometry"/>
                </mxCell>
                <mxCell id="P6kV5CcfUCWV6D3hr4gn-16" value="CloudTrail" style="points=[[0,0,0],[0.25,0,0],[0.5,0,0],[0.75,0,0],[1,0,0],[0,1,0],[0.25,1,0],[0.5,1,0],[0.75,1,0],[1,1,0],[0,0.25,0],[0,0.5,0],[0,0.75,0],[1,0.25,0],[1,0.5,0],[1,0.75,0]];points=[[0,0,0],[0.25,0,0],[0.5,0,0],[0.75,0,0],[1,0,0],[0,1,0],[0.25,1,0],[0.5,1,0],[0.75,1,0],[1,1,0],[0,0.25,0],[0,0.5,0],[0,0.75,0],[1,0.25,0],[1,0.5,0],[1,0.75,0]];outlineConnect=0;fontColor=#232F3E;fillColor=#E7157B;strokeColor=#ffffff;dashed=0;verticalLabelPosition=bottom;verticalAlign=top;align=center;html=1;fontSize=12;fontStyle=0;aspect=fixed;shape=mxgraph.aws4.resourceIcon;resIcon=mxgraph.aws4.cloudtrail;" parent="5f-3jXRU_izveSJCPpXX-2" vertex="1">
                    <mxGeometry x="210" y="842" width="78" height="78" as="geometry"/>
                </mxCell>
                <mxCell id="P6kV5CcfUCWV6D3hr4gn-17" value="Config" style="points=[[0,0,0],[0.25,0,0],[0.5,0,0],[0.75,0,0],[1,0,0],[0,1,0],[0.25,1,0],[0.5,1,0],[0.75,1,0],[1,1,0],[0,0.25,0],[0,0.5,0],[0,0.75,0],[1,0.25,0],[1,0.5,0],[1,0.75,0]];points=[[0,0,0],[0.25,0,0],[0.5,0,0],[0.75,0,0],[1,0,0],[0,1,0],[0.25,1,0],[0.5,1,0],[0.75,1,0],[1,1,0],[0,0.25,0],[0,0.5,0],[0,0.75,0],[1,0.25,0],[1,0.5,0],[1,0.75,0]];outlineConnect=0;fontColor=#232F3E;fillColor=#E7157B;strokeColor=#ffffff;dashed=0;verticalLabelPosition=bottom;verticalAlign=top;align=center;html=1;fontSize=12;fontStyle=0;aspect=fixed;shape=mxgraph.aws4.resourceIcon;resIcon=mxgraph.aws4.config;" parent="5f-3jXRU_izveSJCPpXX-2" vertex="1">
                    <mxGeometry x="330" y="842" width="78" height="78" as="geometry"/>
                </mxCell>
                <mxCell id="P6kV5CcfUCWV6D3hr4gn-18" value="Systems Manager" style="points=[[0,0,0],[0.25,0,0],[0.5,0,0],[0.75,0,0],[1,0,0],[0,1,0],[0.25,1,0],[0.5,1,0],[0.75,1,0],[1,1,0],[0,0.25,0],[0,0.5,0],[0,0.75,0],[1,0.25,0],[1,0.5,0],[1,0.75,0]];points=[[0,0,0],[0.25,0,0],[0.5,0,0],[0.75,0,0],[1,0,0],[0,1,0],[0.25,1,0],[0.5,1,0],[0.75,1,0],[1,1,0],[0,0.25,0],[0,0.5,0],[0,0.75,0],[1,0.25,0],[1,0.5,0],[1,0.75,0]];outlineConnect=0;fontColor=#232F3E;fillColor=#E7157B;strokeColor=#ffffff;dashed=0;verticalLabelPosition=bottom;verticalAlign=top;align=center;html=1;fontSize=12;fontStyle=0;aspect=fixed;shape=mxgraph.aws4.resourceIcon;resIcon=mxgraph.aws4.systems_manager;" parent="5f-3jXRU_izveSJCPpXX-2" vertex="1">
                    <mxGeometry x="450" y="842" width="78" height="78" as="geometry"/>
                </mxCell>
                <mxCell id="f82alaQZ5DiH3mLy60-l-1" value="&lt;font style=&quot;color: rgb(140, 79, 255);&quot;&gt;raisetech-vpc(10.0.0.0/21)&lt;/font&gt;" style="points=[[0,0],[0.25,0],[0.5,0],[0.75,0],[1,0],[1,0.25],[1,0.5],[1,0.75],[1,1],[0.75,1],[0.5,1],[0.25,1],[0,1],[0,0.75],[0,0.5],[0,0.25]];outlineConnect=0;gradientColor=none;html=1;whiteSpace=wrap;fontSize=12;fontStyle=0;container=1;pointerEvents=0;collapsible=0;recursiveResize=0;shape=mxgraph.aws4.group;grIcon=mxgraph.aws4.group_vpc2;strokeColor=#8C4FFF;fillColor=none;verticalAlign=top;align=left;spacingLeft=30;fontColor=#AAB7B8;dashed=0;" parent="1" vertex="1">
                    <mxGeometry x="60" y="260" width="640" height="720" as="geometry"/>
                </mxCell>
                <mxCell id="ogn6myn86fiLowBTFniq-1" value="raisetech-igw" style="outlineConnect=0;fontColor=#232F3E;gradientColor=none;fillColor=#8C4FFF;strokeColor=none;dashed=0;verticalLabelPosition=bottom;verticalAlign=top;align=center;html=1;fontSize=12;fontStyle=0;aspect=fixed;pointerEvents=1;shape=mxgraph.aws4.internet_gateway;" parent="f82alaQZ5DiH3mLy60-l-1" vertex="1">
                    <mxGeometry x="281" y="-40" width="78" height="78" as="geometry"/>
                </mxCell>
                <mxCell id="GRf8XfifJHzuF872TYoU-1" value="&lt;font style=&quot;color: rgb(77, 153, 0);&quot;&gt;raisetech-subnet-public-a&lt;/font&gt;&lt;div&gt;&lt;span style=&quot;background-color: transparent;&quot;&gt;&lt;font style=&quot;color: rgb(77, 153, 0);&quot;&gt;(10.0.0.0/24)&lt;/font&gt;&lt;/span&gt;&lt;/div&gt;" style="points=[[0,0],[0.25,0],[0.5,0],[0.75,0],[1,0],[1,0.25],[1,0.5],[1,0.75],[1,1],[0.75,1],[0.5,1],[0.25,1],[0,1],[0,0.75],[0,0.5],[0,0.25]];outlineConnect=0;gradientColor=none;html=1;whiteSpace=wrap;fontSize=12;fontStyle=0;container=1;pointerEvents=0;collapsible=0;recursiveResize=0;shape=mxgraph.aws4.group;grIcon=mxgraph.aws4.group_security_group;grStroke=0;strokeColor=#7AA116;fillColor=#F2F6E8;verticalAlign=top;align=left;spacingLeft=30;fontColor=#248814;dashed=0;" parent="1" vertex="1">
                    <mxGeometry x="100" y="360" width="240" height="160" as="geometry"/>
                </mxCell>
                <mxCell id="P6kV5CcfUCWV6D3hr4gn-9" style="edgeStyle=none;html=1;" parent="1" source="W1BIlXHA9UkHY2wlGAJQ-1" target="ogn6myn86fiLowBTFniq-1" edge="1">
                    <mxGeometry relative="1" as="geometry"/>
                </mxCell>
                <mxCell id="W1BIlXHA9UkHY2wlGAJQ-1" value="raisetech-alb" style="outlineConnect=0;fontColor=#232F3E;gradientColor=none;fillColor=#8C4FFF;strokeColor=none;dashed=0;verticalLabelPosition=bottom;verticalAlign=top;align=center;html=1;fontSize=12;fontStyle=0;aspect=fixed;pointerEvents=1;shape=mxgraph.aws4.application_load_balancer;" parent="1" vertex="1">
                    <mxGeometry x="340" y="401" width="78" height="78" as="geometry"/>
                </mxCell>
                <mxCell id="GRf8XfifJHzuF872TYoU-2" value="&lt;font style=&quot;color: rgb(0, 153, 153);&quot;&gt;raisetech-subnet-ap-a&lt;/font&gt;&lt;div&gt;&lt;font style=&quot;color: rgb(0, 153, 153);&quot;&gt;(10.0.2.0/24)&lt;/font&gt;&lt;/div&gt;" style="points=[[0,0],[0.25,0],[0.5,0],[0.75,0],[1,0],[1,0.25],[1,0.5],[1,0.75],[1,1],[0.75,1],[0.5,1],[0.25,1],[0,1],[0,0.75],[0,0.5],[0,0.25]];outlineConnect=0;gradientColor=none;html=1;whiteSpace=wrap;fontSize=12;fontStyle=0;container=1;pointerEvents=0;collapsible=0;recursiveResize=0;shape=mxgraph.aws4.group;grIcon=mxgraph.aws4.group_security_group;grStroke=0;strokeColor=#00A4A6;fillColor=#E6F6F7;verticalAlign=top;align=left;spacingLeft=30;fontColor=#147EBA;dashed=0;" parent="1" vertex="1">
                    <mxGeometry x="100" y="560" width="240" height="160" as="geometry"/>
                </mxCell>
                <mxCell id="GRf8XfifJHzuF872TYoU-3" value="raisetech-ap" style="points=[[0,0,0],[0.25,0,0],[0.5,0,0],[0.75,0,0],[1,0,0],[0,1,0],[0.25,1,0],[0.5,1,0],[0.75,1,0],[1,1,0],[0,0.25,0],[0,0.5,0],[0,0.75,0],[1,0.25,0],[1,0.5,0],[1,0.75,0]];outlineConnect=0;fontColor=#232F3E;fillColor=#ED7100;strokeColor=#ffffff;dashed=0;verticalLabelPosition=bottom;verticalAlign=top;align=center;html=1;fontSize=12;fontStyle=0;aspect=fixed;shape=mxgraph.aws4.resourceIcon;resIcon=mxgraph.aws4.ec2;" parent="GRf8XfifJHzuF872TYoU-2" vertex="1">
                    <mxGeometry x="81" y="41" width="78" height="78" as="geometry"/>
                </mxCell>
                <mxCell id="GRf8XfifJHzuF872TYoU-4" value="&lt;font style=&quot;color: rgb(0, 153, 153);&quot;&gt;raisetech-subnet-db-a&lt;/font&gt;&lt;div&gt;&lt;font style=&quot;color: rgb(0, 153, 153);&quot;&gt;(10.0.4.0/24)&lt;/font&gt;&lt;/div&gt;" style="points=[[0,0],[0.25,0],[0.5,0],[0.75,0],[1,0],[1,0.25],[1,0.5],[1,0.75],[1,1],[0.75,1],[0.5,1],[0.25,1],[0,1],[0,0.75],[0,0.5],[0,0.25]];outlineConnect=0;gradientColor=none;html=1;whiteSpace=wrap;fontSize=12;fontStyle=0;container=1;pointerEvents=0;collapsible=0;recursiveResize=0;shape=mxgraph.aws4.group;grIcon=mxgraph.aws4.group_security_group;grStroke=0;strokeColor=#00A4A6;fillColor=#E6F6F7;verticalAlign=top;align=left;spacingLeft=30;fontColor=#147EBA;dashed=0;" parent="1" vertex="1">
                    <mxGeometry x="100" y="760" width="240" height="160" as="geometry"/>
                </mxCell>
                <mxCell id="GRf8XfifJHzuF872TYoU-5" value="raisetech-db" style="points=[[0,0,0],[0.25,0,0],[0.5,0,0],[0.75,0,0],[1,0,0],[0,1,0],[0.25,1,0],[0.5,1,0],[0.75,1,0],[1,1,0],[0,0.25,0],[0,0.5,0],[0,0.75,0],[1,0.25,0],[1,0.5,0],[1,0.75,0]];outlineConnect=0;fontColor=#232F3E;fillColor=#C925D1;strokeColor=#ffffff;dashed=0;verticalLabelPosition=bottom;verticalAlign=top;align=center;html=1;fontSize=12;fontStyle=0;aspect=fixed;shape=mxgraph.aws4.resourceIcon;resIcon=mxgraph.aws4.rds;" parent="GRf8XfifJHzuF872TYoU-4" vertex="1">
                    <mxGeometry x="81" y="41" width="78" height="78" as="geometry"/>
                </mxCell>
                <mxCell id="GRf8XfifJHzuF872TYoU-6" value="&lt;font style=&quot;color: rgb(77, 153, 0);&quot;&gt;raisetech-subnet-public-c&lt;/font&gt;&lt;div&gt;&lt;font style=&quot;color: rgb(77, 153, 0);&quot;&gt;(10.0.1.0/24)&lt;/font&gt;&lt;/div&gt;" style="points=[[0,0],[0.25,0],[0.5,0],[0.75,0],[1,0],[1,0.25],[1,0.5],[1,0.75],[1,1],[0.75,1],[0.5,1],[0.25,1],[0,1],[0,0.75],[0,0.5],[0,0.25]];outlineConnect=0;gradientColor=none;html=1;whiteSpace=wrap;fontSize=12;fontStyle=0;container=1;pointerEvents=0;collapsible=0;recursiveResize=0;shape=mxgraph.aws4.group;grIcon=mxgraph.aws4.group_security_group;grStroke=0;strokeColor=#7AA116;fillColor=#F2F6E8;verticalAlign=top;align=left;spacingLeft=30;fontColor=#248814;dashed=0;" parent="1" vertex="1">
                    <mxGeometry x="420" y="360" width="240" height="160" as="geometry"/>
                </mxCell>
                <mxCell id="GRf8XfifJHzuF872TYoU-7" value="&lt;font style=&quot;color: rgb(0, 153, 153);&quot;&gt;raisetech-subnet-ap-c&lt;/font&gt;&lt;div&gt;&lt;font style=&quot;color: rgb(0, 153, 153);&quot;&gt;(10.0.3.0/24)&lt;/font&gt;&lt;/div&gt;" style="points=[[0,0],[0.25,0],[0.5,0],[0.75,0],[1,0],[1,0.25],[1,0.5],[1,0.75],[1,1],[0.75,1],[0.5,1],[0.25,1],[0,1],[0,0.75],[0,0.5],[0,0.25]];outlineConnect=0;gradientColor=none;html=1;whiteSpace=wrap;fontSize=12;fontStyle=0;container=1;pointerEvents=0;collapsible=0;recursiveResize=0;shape=mxgraph.aws4.group;grIcon=mxgraph.aws4.group_security_group;grStroke=0;strokeColor=#00A4A6;fillColor=#E6F6F7;verticalAlign=top;align=left;spacingLeft=30;fontColor=#147EBA;dashed=0;" parent="1" vertex="1">
                    <mxGeometry x="420" y="560" width="240" height="160" as="geometry"/>
                </mxCell>
                <mxCell id="GRf8XfifJHzuF872TYoU-9" value="&lt;font style=&quot;color: rgb(0, 153, 153);&quot;&gt;raisetech-subnet-db-c&lt;/font&gt;&lt;div&gt;&lt;font style=&quot;color: rgb(0, 153, 153);&quot;&gt;(10.0.5.0/24)&lt;/font&gt;&lt;/div&gt;" style="points=[[0,0],[0.25,0],[0.5,0],[0.75,0],[1,0],[1,0.25],[1,0.5],[1,0.75],[1,1],[0.75,1],[0.5,1],[0.25,1],[0,1],[0,0.75],[0,0.5],[0,0.25]];outlineConnect=0;gradientColor=none;html=1;whiteSpace=wrap;fontSize=12;fontStyle=0;container=1;pointerEvents=0;collapsible=0;recursiveResize=0;shape=mxgraph.aws4.group;grIcon=mxgraph.aws4.group_security_group;grStroke=0;strokeColor=#00A4A6;fillColor=#E6F6F7;verticalAlign=top;align=left;spacingLeft=30;fontColor=#147EBA;dashed=0;" parent="1" vertex="1">
                    <mxGeometry x="420" y="760" width="240" height="160" as="geometry"/>
                </mxCell>
                <mxCell id="P6kV5CcfUCWV6D3hr4gn-6" style="edgeStyle=none;html=1;" parent="1" source="5f-3jXRU_izveSJCPpXX-3" target="5f-3jXRU_izveSJCPpXX-5" edge="1">
                    <mxGeometry relative="1" as="geometry"/>
                </mxCell>
                <mxCell id="P6kV5CcfUCWV6D3hr4gn-7" style="edgeStyle=none;html=1;" parent="1" source="5f-3jXRU_izveSJCPpXX-3" target="ogn6myn86fiLowBTFniq-1" edge="1">
                    <mxGeometry relative="1" as="geometry"/>
                </mxCell>
                <mxCell id="5f-3jXRU_izveSJCPpXX-3" value="Internet" style="outlineConnect=0;fontColor=#232F3E;gradientColor=none;fillColor=#232F3D;strokeColor=none;dashed=0;verticalLabelPosition=bottom;verticalAlign=top;align=center;html=1;fontSize=12;fontStyle=0;aspect=fixed;pointerEvents=1;shape=mxgraph.aws4.internet_alt22;" parent="1" vertex="1">
                    <mxGeometry x="341" y="50" width="78" height="78" as="geometry"/>
                </mxCell>
                <mxCell id="P6kV5CcfUCWV6D3hr4gn-5" style="edgeStyle=none;html=1;strokeColor=default;" parent="1" source="5f-3jXRU_izveSJCPpXX-5" target="5f-3jXRU_izveSJCPpXX-3" edge="1">
                    <mxGeometry relative="1" as="geometry"/>
                </mxCell>
                <mxCell id="5f-3jXRU_izveSJCPpXX-5" value="Users" style="outlineConnect=0;fontColor=#232F3E;gradientColor=none;fillColor=#232F3D;strokeColor=none;dashed=0;verticalLabelPosition=bottom;verticalAlign=top;align=center;html=1;fontSize=12;fontStyle=0;aspect=fixed;pointerEvents=1;shape=mxgraph.aws4.users;" parent="1" vertex="1">
                    <mxGeometry x="582" y="50" width="78" height="78" as="geometry"/>
                </mxCell>
                <mxCell id="P6kV5CcfUCWV6D3hr4gn-11" style="edgeStyle=none;html=1;" parent="1" source="P6kV5CcfUCWV6D3hr4gn-1" target="ogn6myn86fiLowBTFniq-1" edge="1">
                    <mxGeometry relative="1" as="geometry"/>
                </mxCell>
                <mxCell id="P6kV5CcfUCWV6D3hr4gn-1" value="raisetech-ngw" style="outlineConnect=0;fontColor=#232F3E;gradientColor=none;fillColor=#8C4FFF;strokeColor=none;dashed=0;verticalLabelPosition=bottom;verticalAlign=top;align=center;html=1;fontSize=12;fontStyle=0;aspect=fixed;pointerEvents=1;shape=mxgraph.aws4.nat_gateway;" parent="1" vertex="1">
                    <mxGeometry x="181" y="401" width="78" height="78" as="geometry"/>
                </mxCell>
                <mxCell id="P6kV5CcfUCWV6D3hr4gn-8" style="edgeStyle=none;html=1;" parent="1" source="ogn6myn86fiLowBTFniq-1" target="5f-3jXRU_izveSJCPpXX-3" edge="1">
                    <mxGeometry relative="1" as="geometry"/>
                </mxCell>
                <mxCell id="P6kV5CcfUCWV6D3hr4gn-12" style="edgeStyle=none;html=1;entryX=0.643;entryY=0.438;entryDx=0;entryDy=0;entryPerimeter=0;" parent="1" source="W1BIlXHA9UkHY2wlGAJQ-1" target="nPZWYVcRISLS1kJSarjj-1" edge="1">
                    <mxGeometry relative="1" as="geometry"/>
                </mxCell>
                <mxCell id="P6kV5CcfUCWV6D3hr4gn-13" style="edgeStyle=none;html=1;" parent="1" source="GRf8XfifJHzuF872TYoU-3" target="P6kV5CcfUCWV6D3hr4gn-1" edge="1">
                    <mxGeometry relative="1" as="geometry"/>
                </mxCell>
                <mxCell id="P6kV5CcfUCWV6D3hr4gn-14" style="edgeStyle=none;html=1;entryX=0.5;entryY=0;entryDx=0;entryDy=0;entryPerimeter=0;" parent="1" source="GRf8XfifJHzuF872TYoU-3" target="GRf8XfifJHzuF872TYoU-5" edge="1">
                    <mxGeometry relative="1" as="geometry"/>
                </mxCell>
            </root>
        </mxGraphModel>
    </diagram>
</mxfile>